<?xml version="1.0" encoding="utf-8"?>
<!-- Generator: Adobe Illustrator 22.0.1, SVG Export Plug-In . SVG Version: 6.00 Build 0)  -->
<svg version="1.1" id="Layer_1" xmlns="http://www.w3.org/2000/svg" xmlns:xlink="http://www.w3.org/1999/xlink" x="0px" y="0px"
	 viewBox="0 0 2132.7 465.5" style="enable-background:new 0 0 2132.7 465.5;" xml:space="preserve">
<style type="text/css">
	.st0{opacity:8.900000e-02;fill:#D1D1D1;enable-background:new    ;}
	.st1{opacity:0.189;fill:#DFDFDF;enable-background:new    ;}
</style>
<g id="Group_7" transform="translate(0.021 -623.586)">
	<g id="Wave">
		<path id="Path_19" class="st0" d="M1920,826c0,124.1,0,134.3,0.1,258.4c0,3.6-0.6,4.7-4.5,4.7c-637-0.1-1274-0.1-1911.1,0
			c-3.9,0-4.5-1.1-4.5-4.7C0,956.3,0,942.1,0,814c3.2-2.4,6.5-0.9,9.6,0.1c12.8,3.7,25.3,8.3,38,12.4c18.7,6,37.5,11.9,57.2,13.8
			c8.5,0.8,16.6-0.9,24.5-3.7c22-7.9,42.7-18.6,63.6-28.9c38.5-19,77-38.2,116.2-55.8c46.1-20.7,92.9-39.5,141.5-53.3
			c20.8-5.9,41.8-11.1,63.3-14.4c12.5-1.9,25.2-2,37.9-2.7c1.8-0.1,3.7,0.5,5.4-0.5h38c7.9,1.1,16,1.2,23.9,1.7
			c15.2,0.9,29.4,5.5,43.7,10c26.8,8.4,52,20.5,76.5,34.2c32.7,18.4,63.3,40.1,93.2,62.7c27.9,21.1,54.9,43.3,82.9,64.3
			c14.4,10.8,29.2,20.9,45.2,29.4c16.1,8.5,32.8,10.6,50.8,7.9c22.8-3.4,44.3-10.7,65.6-18.9c22.2-8.6,44.4-17.5,67.7-22.6
			c13.7-2.8,27.6-4.7,41.5-5.6c17.1-1.2,34.4,1.2,50.5,7.1c15.1,5.4,29.3,12.7,43.3,20.6c27.6,15.5,54.5,32.1,83,46.1
			c26.6,13.2,54.2,24,82.7,32.4c32,9.2,64.9,15.2,98.1,18c18.2,1.6,36.5,2.8,54.8,2.2c43.4-1.4,85-10.6,124.7-28.6
			c36.2-16.5,69.5-37.9,102.7-59.6c28.7-18.7,57.1-38.1,86.9-55.1C1915,825.8,1917.2,823.8,1920,826z"/>
	</g>
	<path id="Path_20" class="st1" d="M0.1,784.6c0,137.8,0,154.8-0.1,292.6c0,4,0.7,5.2,5,5.2c707.5-0.1,1415.1-0.1,2122.7,0
		c4.3,0,5-1.2,5-5.2v-306c-3.6-2.7-7.2-1-10.7,0.1c-14.2,4.1-28.1,9.2-42.2,13.8c-20.8,6.7-41.7,13.2-63.5,15.3
		c-9.4,0.9-18.4-1-27.2-4.1c-24.4-8.8-47.4-20.7-70.6-32.1c-42.8-21.1-85.5-42.4-129.1-62c-51.2-23-103.2-43.9-157.2-59.2
		c-23.1-6.6-46.4-12.3-70.3-16c-13.9-2.1-28-2.2-42.1-3c-2-0.1-4.1,0.6-6-0.6h-42.2c-8.8,1.2-17.8,1.3-26.5,1.9
		c-16.9,1-32.7,6.1-48.5,11.1c-29.8,9.3-57.8,22.8-85,38c-36.3,20.4-70.3,44.5-103.5,69.6c-31,23.4-61,48.1-92.1,71.4
		c-16,12-32.4,23.2-50.2,32.7c-17.9,9.4-36.4,11.8-56.4,8.8c-25.3-3.8-49.2-11.9-72.9-21c-24.7-9.6-49.3-19.4-75.2-25.1
		c-15.2-3.1-30.6-5.2-46.1-6.2c-19-1.4-38.2,1.3-56.1,7.9c-16.8,6-32.5,14.1-48.1,22.9c-30.7,17.2-60.5,35.7-92.2,51.2
		c-29.5,14.6-60.3,26.7-91.9,36c-35.6,10.2-72.1,16.9-109,20c-20.2,1.8-40.5,3.1-60.9,2.4c-48.2-1.6-94.4-11.8-138.5-31.8
		c-40.2-18.3-77.2-42.1-114.1-66.2C72.6,826.4,41.1,804.9,8,786C5.6,784.4,3.2,782.2,0.1,784.6z"/>
</g>
</svg>
