<svg xmlns="http://www.w3.org/2000/svg" viewBox="0 0 27.44 27.44">
  <path id="iconfinder_instagram_3009537" d="M13.72,0C9.993,0,9.528.017,8.064.082A10.117,10.117,0,0,0,4.733.72,6.719,6.719,0,0,0,2.3,2.3,6.694,6.694,0,0,0,.72,4.733,10.087,10.087,0,0,0,.082,8.064C.014,9.527,0,9.993,0,13.72s.017,4.193.082,5.656A10.123,10.123,0,0,0,.72,22.707,6.728,6.728,0,0,0,2.3,25.138,6.709,6.709,0,0,0,4.733,26.72a10.13,10.13,0,0,0,3.331.638c1.463.069,1.929.082,5.656.082s4.193-.017,5.656-.082a10.153,10.153,0,0,0,3.331-.638,7.012,7.012,0,0,0,4.013-4.013,10.123,10.123,0,0,0,.638-3.331c.069-1.463.082-1.929.082-5.656s-.017-4.193-.082-5.656a10.146,10.146,0,0,0-.638-3.331A6.734,6.734,0,0,0,25.138,2.3,6.685,6.685,0,0,0,22.707.72,10.094,10.094,0,0,0,19.376.082C17.913.014,17.447,0,13.72,0Zm0,2.47c3.662,0,4.1.018,5.545.081a7.559,7.559,0,0,1,2.546.474,4.515,4.515,0,0,1,2.6,2.6,7.575,7.575,0,0,1,.472,2.546c.065,1.447.08,1.882.08,5.545s-.017,4.1-.085,5.545a7.721,7.721,0,0,1-.481,2.546,4.356,4.356,0,0,1-1.028,1.58A4.28,4.28,0,0,1,21.8,24.416a7.631,7.631,0,0,1-2.555.472c-1.457.065-1.885.08-5.556.08s-4.1-.017-5.556-.085A7.78,7.78,0,0,1,5.574,24.4,4.249,4.249,0,0,1,4,23.374,4.166,4.166,0,0,1,2.968,21.8a7.786,7.786,0,0,1-.48-2.555c-.051-1.441-.07-1.885-.07-5.538s.018-4.1.07-5.558a7.777,7.777,0,0,1,.48-2.554A4.067,4.067,0,0,1,4,4.012,4.058,4.058,0,0,1,5.574,2.985,7.594,7.594,0,0,1,8.113,2.5c1.458-.051,1.887-.069,5.556-.069l.051.034Zm0,4.205a7.045,7.045,0,1,0,7.045,7.045A7.045,7.045,0,0,0,13.72,6.675Zm0,11.619a4.573,4.573,0,1,1,4.573-4.573A4.572,4.572,0,0,1,13.72,18.293ZM22.691,6.4a1.646,1.646,0,1,1-1.646-1.645A1.648,1.648,0,0,1,22.691,6.4Z" transform="translate(0 0)"/>
</svg>
