<svg xmlns="http://www.w3.org/2000/svg" viewBox="0 0 27.44 27.44">
  <path id="iconfinder_linkedin_3009543" d="M23.378,23.384H19.315V17.016c0-1.518-.031-3.472-2.117-3.472-2.119,0-2.442,1.652-2.442,3.36v6.479H10.691V10.29h3.9v1.785h.053A4.282,4.282,0,0,1,18.5,9.96c4.117,0,4.879,2.71,4.879,6.237v7.187ZM6.1,8.5a2.36,2.36,0,1,1,2.36-2.361A2.358,2.358,0,0,1,6.1,8.5ZM8.139,23.384H4.065V10.29H8.139ZM25.411,0H2.025A2,2,0,0,0,0,1.977V25.463A2,2,0,0,0,2.025,27.44H25.407a2.008,2.008,0,0,0,2.033-1.977V1.977A2.008,2.008,0,0,0,25.407,0Z" transform="translate(0 0)"/>
</svg>
