<svg xmlns="http://www.w3.org/2000/svg" viewBox="0 0 27.441 22.303">
  <path id="iconfinder_twitter_3009565" d="M27.388,4.9a11.434,11.434,0,0,1-3.23.886,5.669,5.669,0,0,0,2.473-3.113,11.62,11.62,0,0,1-3.575,1.354,5.624,5.624,0,0,0-9.731,3.839,5.757,5.757,0,0,0,.145,1.285A15.932,15.932,0,0,1,1.875,3.292a5.513,5.513,0,0,0-.761,2.83,5.626,5.626,0,0,0,2.5,4.683,5.607,5.607,0,0,1-2.547-.7v.07A5.629,5.629,0,0,0,5.58,15.689a5.677,5.677,0,0,1-2.529.1,5.644,5.644,0,0,0,5.264,3.907A11.283,11.283,0,0,1,1.338,22.1,11.94,11.94,0,0,1,0,22.024a16,16,0,0,0,8.64,2.526A15.89,15.89,0,0,0,24.646,8.558c0-.239,0-.48-.017-.72a11.36,11.36,0,0,0,2.813-2.913L27.388,4.9Z" transform="translate(0 -2.246)"/>
</svg>
